<svg width="61" height="32" viewBox="0 0 61 32" fill="none" xmlns="http://www.w3.org/2000/svg">
<path d="M43.032 8.5388L42.8245 8.33154H20.0843C20.0428 8.34812 19.8437 8.55538 19.8354 8.58025C19.7441 8.91185 19.9018 9.60823 19.8354 9.98957L19.7109 10.1139H18.134L17.968 10.3626V23.4611L18.1838 23.6683H40.9239C40.9737 23.6186 41.1729 23.4445 41.1729 23.4196V22.0103L41.2974 21.8859H42.8743L43.0403 21.6372V8.5388H43.032ZM40.3347 22.7979H18.8394V10.9429H40.2102L40.3347 11.0673V22.7979ZM42.1605 21.0569H41.1646V10.3212C41.1646 10.3046 41.0401 10.172 40.9986 10.1554L20.8728 10.1139L20.6736 9.98128V9.20201C20.6653 9.20201 42.1605 9.20201 42.1605 9.20201V21.0569Z" fill="#33363F"/>
<path d="M39.4052 13.5711C39.2807 13.1566 38.2184 13.4799 37.903 12.5016C37.7868 12.1452 37.9777 11.8882 37.5047 11.739L22.043 11.6892L21.4206 11.8136C21.1384 11.9877 21.404 12.8747 20.5658 13.198C20.267 13.3141 19.8354 13.2312 19.7109 13.5877L19.6777 20.0954C19.7939 20.5845 20.267 20.4105 20.6073 20.5763C21.3708 20.941 21.1218 21.911 21.5534 22.0353L37.3885 22.0519C37.9528 22.0685 37.7868 21.5296 37.9694 21.14C38.3263 20.3524 39.0981 20.5928 39.3222 20.3773C39.5795 20.1203 39.3471 14.3835 39.4052 13.5711ZM22.0762 21.14C21.8854 20.3524 21.2712 19.9213 20.5907 19.598V14.1016C21.3293 13.9524 21.9351 13.3389 22.0762 12.6011H27.3878C25.562 14.4664 25.2466 17.5338 26.4085 19.8384C26.6575 20.3193 27.0309 20.684 27.3048 21.14H22.0762ZM29.9191 21.14C25.7943 21.6125 25.5869 13.1897 29.1888 12.6177C31.3549 12.2778 32.5002 15.0384 32.5251 16.7959C32.55 18.2965 31.6785 20.9327 29.9191 21.1317V21.14ZM38.5172 19.6146C37.7454 19.8965 37.2806 20.3856 36.9735 21.14H31.7864C33.6289 19.1421 33.9028 15.768 32.4338 13.4882C32.2263 13.1566 31.9358 12.941 31.7864 12.6011H36.9735C37.181 12.9244 37.2806 13.3141 37.5545 13.5959C37.8698 13.9193 38.2682 13.9524 38.5836 14.226L38.5172 19.6063V19.6146Z" fill="#33363F"/>
<path d="M29.9607 16.4975V15.0467C29.9607 15.0301 30.0934 14.8975 30.1266 14.9224C30.442 15.4198 30.3341 16.3897 31.1641 15.9172C31.5209 15.312 30.9566 14.4996 30.4586 14.1348C30.3258 14.0436 30.0519 14.0104 30.0021 13.9275C29.8777 13.7286 30.1266 13.3058 29.5872 13.2643C29.0394 13.2229 29.2386 13.6871 29.0975 13.9275C29.0394 14.027 28.666 14.1431 28.5166 14.2591C27.3879 15.1296 27.7447 16.9369 29.139 17.2436V18.8187C28.5498 18.7027 28.9398 17.7742 28.3423 17.741C27.4709 17.6913 27.9439 19.0011 28.3506 19.399C28.5249 19.5648 29.1058 19.7887 29.1224 19.8301C29.2303 20.0125 28.9564 20.5265 29.5955 20.485C30.1349 20.4519 29.8777 19.9959 29.9855 19.8301C30.0021 19.797 30.5499 19.598 30.7242 19.4488C31.745 18.5534 31.2885 16.8042 29.9773 16.5058L29.9607 16.4975ZM29.1307 16.2488C28.5083 16.083 28.6079 15.1711 29.1307 14.9224V16.2488ZM29.9607 18.8187V17.4923C30.4918 17.6332 30.5665 18.711 29.9607 18.8187Z" fill="#33363F"/>
</svg>
