<svg width="22" height="22" viewBox="0 0 22 22" fill="none" xmlns="http://www.w3.org/2000/svg">
<path d="M20.2124 10.7164C17.935 11.0258 16.9038 8.91176 18.9061 7.72582L18.2616 7.39067C16.7491 7.2016 15.8983 8.53364 14.7811 9.22973C13.5093 10.0204 10.9827 10.8454 10.278 8.92895C9.5991 7.08989 11.1889 5.93832 12.8991 6.43676C12.3147 4.08207 9.51317 3.60942 7.57957 4.76957C5.07879 6.27348 5.22489 9.28989 2.07098 10.0891C1.70145 10.1836 0.481136 10.5274 0.438167 9.99457C0.429574 9.84848 0.481136 9.72817 0.618636 9.65942C0.97098 9.47035 2.02801 9.42738 2.57801 9.21254C4.01317 8.63676 4.43426 7.16723 5.31082 6.01567C6.76317 4.11645 8.76551 2.8016 11.2319 3.68676C12.5983 4.1766 14.0679 5.72348 13.5093 7.25317C13.2858 7.50239 12.7874 7.10707 12.5038 7.05551C11.7561 6.9266 11.0085 7.0727 10.9311 7.93207C10.7936 9.51332 12.1944 9.57348 13.3632 9.16098C15.3054 8.47348 16.2507 6.3852 18.528 6.69457C18.9749 6.75473 20.3069 7.52817 19.9202 8.06957C19.7999 8.24145 19.0436 8.10395 18.76 8.80004C18.3046 9.91723 19.5936 10.1063 20.4014 9.92582C20.685 9.85707 21.6218 9.38442 21.7507 9.74535C21.9397 10.3039 20.6421 10.6477 20.2382 10.6993L20.2124 10.7164Z" fill="#33363F"/>
<path d="M21.639 12.2718C21.553 12.3491 20.9343 12.521 20.771 12.564C19.7483 12.8046 18.8202 12.7874 17.8147 12.4866C17.5483 12.4093 16.6632 11.9624 16.5601 11.971C16.3882 11.9882 15.8812 12.3405 15.6405 12.4265C14.0593 12.9937 12.4351 12.7444 10.9741 11.971C9.24678 12.9679 7.08975 13.0023 5.371 11.9538C4.42568 12.521 3.29131 12.796 2.19131 12.7273C1.81318 12.7015 0.29209 12.4694 0.274902 12.0054C0.506934 11.3694 1.60693 11.9796 2.1999 12.0226C3.38584 12.1171 4.38271 11.7734 5.37959 11.1718C5.60303 11.1632 5.96397 11.5069 6.21318 11.6187C7.41631 12.1515 8.86006 12.1859 10.0804 11.6702C10.4327 11.5155 10.6819 11.2663 11.0429 11.1718C12.3749 12.014 13.9132 12.2976 15.4343 11.7819C15.8812 11.6273 16.2593 11.3179 16.7147 11.1718C17.703 11.8077 18.7858 12.1343 19.9718 12.0226C20.3327 11.9882 21.3124 11.6359 21.5187 11.696C21.7163 11.7648 21.7937 12.1257 21.639 12.2632V12.2718Z" fill="#33363F"/>
<path d="M21.4844 16.457C20.6938 16.9984 18.7086 16.8781 17.8149 16.6117C17.5485 16.5343 16.6633 16.0875 16.5602 16.096C16.3883 16.1132 15.8813 16.4656 15.6407 16.5515C14.0594 17.1187 12.4352 16.8695 10.9743 16.096C9.24692 17.0929 7.08989 17.1273 5.37114 16.0789C4.16802 16.8093 2.75005 17.0156 1.37505 16.7234C1.07427 16.6632 0.292236 16.5 0.292236 16.1218L0.489893 15.8296C1.02271 15.8125 1.51255 16.096 2.02817 16.1562C2.71567 16.225 3.49771 16.1218 4.15083 15.8898C4.4688 15.7781 5.01021 15.3742 5.22505 15.3226C5.43989 15.271 6.23052 15.7953 6.57427 15.9156C8.12114 16.4398 9.59067 16.139 10.9571 15.314C12.3407 16.139 13.7672 16.4312 15.3399 15.907C15.8211 15.7437 16.1649 15.4859 16.6204 15.3054C17.6086 15.907 18.6227 16.2507 19.8086 16.1648C20.2555 16.1304 20.9946 15.8125 21.2696 15.8125C21.5446 15.8125 21.811 16.2335 21.4758 16.457H21.4844Z" fill="#33363F"/>
<path d="M21.5446 14.3258C20.9431 14.9445 18.6056 14.7812 17.8063 14.5406C17.5399 14.4633 16.6548 14.0164 16.5517 14.025C16.3798 14.0422 15.8728 14.3945 15.6321 14.4805C14.0509 15.0477 12.4267 14.7984 10.9657 14.025C9.23838 15.0219 7.08135 15.0562 5.3626 14.0078C4.41729 14.575 3.28291 14.85 2.18291 14.7812C1.80479 14.7555 0.283691 14.532 0.283691 14.0508L0.421191 13.793C0.67041 13.6469 1.6415 14.0508 2.01963 14.0852C3.28291 14.2141 4.27119 13.8016 5.354 13.2344C7.08994 14.4117 9.19541 14.343 10.9485 13.243C12.3321 14.068 13.7587 14.3602 15.3313 13.8359C15.8126 13.6727 16.1563 13.4148 16.6118 13.2344C17.6345 13.8531 18.6571 14.1883 19.8774 14.0852C20.2813 14.0508 21.5274 13.518 21.6392 13.982C21.6563 14.0937 21.622 14.2484 21.5446 14.3258Z" fill="#33363F"/>
</svg>
