<svg width="16" height="16" viewBox="0 0 16 16" fill="none" xmlns="http://www.w3.org/2000/svg">
<path d="M15.576 7.95446C15.6094 7.55453 16.0315 7.04351 15.9981 6.38807C15.9204 4.59948 13.9321 3.05531 12.2215 3.8885C12.2103 3.48856 12.3436 3.13307 12.3436 2.72203C12.3214 1.30005 10.9218 -0.0219423 9.51114 0.000276141C9.05572 0.000276141 8.16709 0.444644 7.96715 0.422426C7.63391 0.400208 7.03409 0.000276141 6.50091 0.000276141C4.55704 0.000276141 3.2352 1.94439 3.77949 3.7774C1.94669 3.18862 -0.0860497 4.67725 0.0028132 6.61025C0.0250289 7.04351 0.447128 7.84337 0.424912 8.04334C0.391589 8.40994 -0.00829466 9.02095 0.0028132 9.60973C0.0361368 11.1206 1.55791 12.4537 3.05747 12.3315C3.27963 12.3093 3.69062 12.1093 3.77949 12.1648C3.95721 12.2648 3.5129 13.1313 3.66841 13.3869C3.74616 14.7755 5.22351 16.0642 6.61199 15.9975C7.0452 15.9753 7.84496 15.5532 8.0449 15.5754C8.44479 15.6087 8.95575 16.0309 9.61111 15.9975C11.4106 15.9198 12.9213 13.9868 12.1215 12.2759C12.2992 11.9871 12.5547 12.2982 12.8546 12.3204C14.6541 12.4426 16.2314 10.9428 15.9648 9.09871C15.9204 8.77654 15.576 8.1211 15.5982 7.95446H15.576ZM5.85665 0.800139C6.201 0.733484 6.80082 0.744593 7.13406 0.800139C7.45619 0.855685 7.78942 1.18896 7.95604 1.20007C8.06712 1.20007 8.55586 0.855685 8.85578 0.800139C10.3442 0.544627 11.6994 1.30005 11.6661 2.9331C11.6438 3.87739 10.4664 4.9772 9.83327 5.65486C9.25566 6.26587 8.63362 6.83243 8.03379 7.42122C7.88939 7.44344 6.50091 5.99925 6.26764 5.76595C5.82333 5.29937 4.6459 4.09957 4.46817 3.56633C4.10161 2.51096 4.6459 1.01121 5.85665 0.78903V0.800139ZM2.83532 11.6649C1.22468 11.5205 0.358264 10.2318 0.84701 8.67656C0.924765 8.45438 1.18025 8.17665 1.19135 8.03223C1.21357 7.83226 0.924765 7.54342 0.84701 7.31013C0.169431 5.21049 2.20217 3.54411 4.06829 4.7439C4.63479 5.11051 7.12295 7.37679 7.37843 7.8767C7.42286 7.96557 7.45619 8.01001 7.37843 8.09888C5.94552 9.26535 4.72365 11.3317 2.82421 11.6538L2.83532 11.6649ZM11.4661 13.9645C11.0218 15.131 9.79994 15.4865 8.67805 15.131C8.43368 15.0532 8.15598 14.7644 7.95604 14.7866C7.80053 14.7977 7.53394 15.0644 7.31178 15.131C5.01246 15.8753 3.41293 13.4868 4.94581 11.6538L7.88939 8.5988C8.02269 8.49881 8.06712 8.58769 8.16709 8.65434C8.68916 9.00984 9.57779 10.0985 10.0443 10.6096C11.0107 11.676 12.0993 12.3204 11.4772 13.9645H11.4661ZM15.1095 8.5988C15.7982 10.7651 13.8099 12.4648 11.9104 11.2428C11.3439 10.8762 8.85578 8.60991 8.6003 8.10999C8.54476 7.9989 8.54476 7.9989 8.6003 7.88781C8.71137 7.67673 10.0443 6.4325 10.322 6.16588C10.733 5.77706 11.7438 4.79945 12.1881 4.58838C14.0209 3.69964 15.7871 5.41046 15.1428 7.32124C15.0651 7.54342 14.8096 7.83226 14.7874 7.96557C14.7763 8.09888 15.0429 8.39883 15.1095 8.60991V8.5988Z" fill="#33363F"/>
</svg>
