<svg width="23" height="23" viewBox="0 0 23 23" fill="none" xmlns="http://www.w3.org/2000/svg">
<g clip-path="url(#clip0_690_917)">
<path d="M22.7715 14.8916C22.2145 13.3262 20.5436 12.4174 18.9137 12.7106C18.644 12.265 18.8199 12.1829 18.943 11.7784C19.4648 10.0312 19.072 8.21376 17.7235 6.95911C15.4253 4.82503 11.6496 5.58134 10.4008 8.44828C9.90249 8.4131 9.41587 8.46586 8.92925 8.57726C6.73068 5.45822 1.88209 7.01774 1.91727 10.8286C1.17269 11.1159 0.557087 11.5908 0.240493 12.3412C0.164275 12.5171 0.0294297 12.8982 0.0118411 13.0741C-0.0116104 13.2851 0.0294297 13.5314 0.0118411 13.7483C0.164275 14.5984 0.662619 15.3899 1.44824 15.7944C1.57722 15.8589 2.16937 16.0876 2.28077 16.0876H6.93002V16.9611C6.93002 18.251 8.51885 19.4646 9.73246 19.5467C13.0157 19.7636 16.5334 19.3825 19.84 19.5467C21.1181 19.4235 22.2321 18.6379 22.7304 17.4478C22.8594 17.1312 22.9239 16.8146 23.006 16.4863V15.7241C22.9825 15.4954 22.8594 15.1143 22.7832 14.8916H22.7715ZM15.7829 6.70114C17.7177 7.32847 18.7847 9.39806 18.2864 11.3621C18.2219 11.4325 17.8115 10.9048 17.747 10.8462C16.4161 9.60912 14.5341 9.25735 12.8339 9.91399C12.3532 9.36288 11.849 8.89385 11.1454 8.64175C11.9955 6.95325 13.9654 6.10899 15.7829 6.70114ZM7.11763 15.3195L2.37457 15.3078C0.639167 15.0088 0.19359 12.605 1.75897 11.7549C2.06384 11.5908 2.6384 11.5673 2.69703 11.2097C2.77325 10.7113 2.66185 10.3361 2.83774 9.77915C3.54128 7.51608 6.55479 6.94738 8.085 8.74728C8.21398 8.89972 8.45436 9.35116 8.58921 9.40978C8.82958 9.51532 9.43932 9.23976 9.76764 9.21631C10.5591 9.16354 11.6203 9.55636 12.0835 10.2306C12.1069 10.2658 12.1421 10.2775 12.1245 10.342C10.993 10.9634 10.2836 12.1771 10.0197 13.42C8.74164 13.4258 7.63356 14.1704 7.11176 15.3313L7.11763 15.3195ZM19.8283 18.7728H9.81454C6.96519 18.5793 7.02382 14.4694 9.64452 14.1997C9.90249 14.1704 10.4184 14.2584 10.6002 14.1235C10.7761 13.9945 10.8464 13.2089 10.9402 12.9334C11.4386 11.4501 12.8867 10.3772 14.4579 10.3361C16.123 10.2951 17.4656 11.2742 18.1222 12.7516C18.216 12.9568 18.2629 13.3789 18.4623 13.4903C18.6792 13.6076 19.0134 13.4434 19.2479 13.4258C22.8301 13.1268 23.3226 18.2979 19.8283 18.7669V18.7728Z" fill="#33363F"/>
<path d="M10.1779 6.51356C9.91409 6.31422 9.39229 5.82174 9.68544 5.4817C9.99031 5.12992 10.2893 5.54619 10.4828 5.7338C10.5531 5.80415 10.6411 5.83933 10.7173 5.92727C11.1277 6.42562 10.6821 6.89465 10.1779 6.5077V6.51356Z" fill="#33363F"/>
<path d="M19.5175 5.92731C19.4999 5.97422 18.8726 6.58982 18.8198 6.61913C18.5794 6.74811 18.257 6.58395 18.2394 6.30254C18.2277 6.0563 18.9254 5.36448 19.1657 5.35275C19.4706 5.33516 19.6348 5.65176 19.5175 5.92145V5.92731Z" fill="#33363F"/>
<path d="M21.1709 10.7231C21.036 10.7524 20.3853 10.7524 20.2446 10.7231C19.8459 10.6352 19.8459 10.0489 20.2446 9.97855C20.4556 9.94337 21.2295 9.92578 21.3644 10.0724C21.5637 10.2893 21.4523 10.6586 21.165 10.7231H21.1709Z" fill="#33363F"/>
<path d="M14.9502 4.68444C14.8681 5.05966 14.2936 5.07725 14.2056 4.68444C14.1705 4.52614 14.1763 3.92813 14.2056 3.75811C14.2584 3.4591 14.6512 3.34184 14.8564 3.55877C14.9913 3.70534 14.9971 4.47924 14.9502 4.67858V4.68444Z" fill="#33363F"/>
</g>
<defs>
<clipPath id="clip0_690_917">
<rect width="23" height="23" fill="white"/>
</clipPath>
</defs>
</svg>
